<mxfile host="app.diagrams.net" modified="2023-06-02T10:40:26.889Z" agent="Mozilla/5.0 (Windows NT 10.0; Win64; x64) AppleWebKit/537.36 (KHTML, like Gecko) Chrome/113.0.0.0 Safari/537.36" etag="MyAxOlCR00BUNWufmzco" version="21.2.9" type="device">
  <diagram name="Page-1" id="Pf4MNqjnaDDNFhd0Ldu0">
    <mxGraphModel dx="2763" dy="936" grid="1" gridSize="10" guides="1" tooltips="1" connect="1" arrows="1" fold="1" page="1" pageScale="1" pageWidth="827" pageHeight="1169" math="0" shadow="0">
      <root>
        <mxCell id="0" />
        <mxCell id="1" parent="0" />
        <mxCell id="w9qUwpdRqVjGqrr_h310-75" value="" style="rounded=0;whiteSpace=wrap;html=1;" vertex="1" parent="1">
          <mxGeometry x="-189" y="60" width="999" height="510" as="geometry" />
        </mxCell>
        <mxCell id="w9qUwpdRqVjGqrr_h310-1" value="" style="sketch=0;points=[[0,0,0],[0.25,0,0],[0.5,0,0],[0.75,0,0],[1,0,0],[0,1,0],[0.25,1,0],[0.5,1,0],[0.75,1,0],[1,1,0],[0,0.25,0],[0,0.5,0],[0,0.75,0],[1,0.25,0],[1,0.5,0],[1,0.75,0]];outlineConnect=0;fontColor=#232F3E;gradientColor=#FF4F8B;gradientDirection=north;fillColor=#BC1356;strokeColor=#ffffff;dashed=0;verticalLabelPosition=bottom;verticalAlign=top;align=center;html=1;fontSize=12;fontStyle=0;aspect=fixed;shape=mxgraph.aws4.resourceIcon;resIcon=mxgraph.aws4.api_gateway;" vertex="1" parent="1">
          <mxGeometry x="-10" y="230" width="78" height="78" as="geometry" />
        </mxCell>
        <mxCell id="w9qUwpdRqVjGqrr_h310-14" value="" style="group;strokeWidth=2;strokeColor=#6c8ebf;dashed=1;fillColor=#dae8fc;" vertex="1" connectable="0" parent="1">
          <mxGeometry x="280" y="120" width="160" height="110" as="geometry" />
        </mxCell>
        <mxCell id="w9qUwpdRqVjGqrr_h310-2" value="" style="rounded=1;whiteSpace=wrap;html=1;dashed=1;fillColor=none;" vertex="1" parent="w9qUwpdRqVjGqrr_h310-14">
          <mxGeometry width="160" height="110" as="geometry" />
        </mxCell>
        <mxCell id="w9qUwpdRqVjGqrr_h310-3" value="" style="shape=image;html=1;verticalAlign=top;verticalLabelPosition=bottom;labelBackgroundColor=#ffffff;imageAspect=0;aspect=fixed;image=https://cdn1.iconfinder.com/data/icons/bootstrap-vol-3/16/hexagon-128.png;imageBackground=none;imageBorder=none;dashed=1;fontColor=#e106e5;strokeWidth=5;" vertex="1" parent="w9qUwpdRqVjGqrr_h310-14">
          <mxGeometry y="30" width="50" height="50" as="geometry" />
        </mxCell>
        <mxCell id="w9qUwpdRqVjGqrr_h310-11" value="" style="html=1;whiteSpace=wrap;shape=isoCube2;backgroundOutline=1;isoAngle=15;fillColor=#36b0ce;" vertex="1" parent="w9qUwpdRqVjGqrr_h310-14">
          <mxGeometry x="100" y="27.5" width="50" height="55" as="geometry" />
        </mxCell>
        <mxCell id="w9qUwpdRqVjGqrr_h310-12" value="" style="endArrow=classic;html=1;rounded=0;exitX=1;exitY=0.25;exitDx=0;exitDy=0;entryX=-0.017;entryY=0.367;entryDx=0;entryDy=0;entryPerimeter=0;" edge="1" parent="w9qUwpdRqVjGqrr_h310-14" source="w9qUwpdRqVjGqrr_h310-3" target="w9qUwpdRqVjGqrr_h310-11">
          <mxGeometry width="50" height="50" relative="1" as="geometry">
            <mxPoint x="60" y="270" as="sourcePoint" />
            <mxPoint x="110" y="220" as="targetPoint" />
          </mxGeometry>
        </mxCell>
        <mxCell id="w9qUwpdRqVjGqrr_h310-13" value="" style="endArrow=classic;html=1;rounded=0;exitX=-0.033;exitY=0.617;exitDx=0;exitDy=0;entryX=0.98;entryY=0.64;entryDx=0;entryDy=0;exitPerimeter=0;entryPerimeter=0;" edge="1" parent="w9qUwpdRqVjGqrr_h310-14" source="w9qUwpdRqVjGqrr_h310-11" target="w9qUwpdRqVjGqrr_h310-3">
          <mxGeometry width="50" height="50" relative="1" as="geometry">
            <mxPoint x="20" y="160" as="sourcePoint" />
            <mxPoint x="69" y="164" as="targetPoint" />
          </mxGeometry>
        </mxCell>
        <mxCell id="w9qUwpdRqVjGqrr_h310-24" value="&lt;b&gt;Envoy&lt;/b&gt;" style="text;html=1;align=center;verticalAlign=middle;resizable=0;points=[];autosize=1;strokeColor=none;fillColor=none;" vertex="1" parent="w9qUwpdRqVjGqrr_h310-14">
          <mxGeometry x="-5" y="40" width="60" height="30" as="geometry" />
        </mxCell>
        <mxCell id="w9qUwpdRqVjGqrr_h310-28" value="&lt;span style=&quot;background-color: rgb(0, 0, 0);&quot;&gt;&lt;font color=&quot;#ffffff&quot;&gt;App 1&lt;/font&gt;&lt;/span&gt;" style="text;html=1;align=center;verticalAlign=middle;resizable=0;points=[];autosize=1;strokeColor=none;fillColor=none;fontStyle=1" vertex="1" parent="w9qUwpdRqVjGqrr_h310-14">
          <mxGeometry x="95" y="40" width="60" height="30" as="geometry" />
        </mxCell>
        <mxCell id="w9qUwpdRqVjGqrr_h310-70" value="&lt;font face=&quot;Comic Sans MS&quot; style=&quot;font-size: 18px;&quot; color=&quot;#ffffff&quot;&gt;3&lt;/font&gt;" style="ellipse;whiteSpace=wrap;html=1;aspect=fixed;strokeWidth=2;fontFamily=Tahoma;spacingBottom=4;spacingRight=2;strokeColor=#d3d3d3;fillColor=#000000;" vertex="1" parent="w9qUwpdRqVjGqrr_h310-14">
          <mxGeometry x="60" y="20" width="20" height="20" as="geometry" />
        </mxCell>
        <mxCell id="w9qUwpdRqVjGqrr_h310-69" value="&lt;font face=&quot;Comic Sans MS&quot; style=&quot;font-size: 18px;&quot; color=&quot;#ffffff&quot;&gt;4&lt;/font&gt;" style="ellipse;whiteSpace=wrap;html=1;aspect=fixed;strokeWidth=2;fontFamily=Tahoma;spacingBottom=4;spacingRight=2;strokeColor=#d3d3d3;fillColor=#000000;" vertex="1" parent="w9qUwpdRqVjGqrr_h310-14">
          <mxGeometry x="70" y="62.5" width="20" height="20" as="geometry" />
        </mxCell>
        <mxCell id="w9qUwpdRqVjGqrr_h310-15" value="" style="group;strokeColor=#b46504;strokeWidth=2;dashed=1;fillColor=#fad7ac;" vertex="1" connectable="0" parent="1">
          <mxGeometry x="280" y="380" width="160" height="110" as="geometry" />
        </mxCell>
        <mxCell id="w9qUwpdRqVjGqrr_h310-16" value="" style="rounded=1;whiteSpace=wrap;html=1;dashed=1;fillColor=none;" vertex="1" parent="w9qUwpdRqVjGqrr_h310-15">
          <mxGeometry width="160" height="110" as="geometry" />
        </mxCell>
        <mxCell id="w9qUwpdRqVjGqrr_h310-17" value="" style="shape=image;html=1;verticalAlign=top;verticalLabelPosition=bottom;labelBackgroundColor=#ffffff;imageAspect=0;aspect=fixed;image=https://cdn1.iconfinder.com/data/icons/bootstrap-vol-3/16/hexagon-128.png;imageBackground=none;imageBorder=none;dashed=1;fontColor=#e106e5;" vertex="1" parent="w9qUwpdRqVjGqrr_h310-15">
          <mxGeometry y="30" width="50" height="50" as="geometry" />
        </mxCell>
        <mxCell id="w9qUwpdRqVjGqrr_h310-18" value="" style="html=1;whiteSpace=wrap;shape=isoCube2;backgroundOutline=1;isoAngle=15;fillColor=#36b0ce;" vertex="1" parent="w9qUwpdRqVjGqrr_h310-15">
          <mxGeometry x="100" y="27.5" width="50" height="55" as="geometry" />
        </mxCell>
        <mxCell id="w9qUwpdRqVjGqrr_h310-19" value="" style="endArrow=classic;html=1;rounded=0;exitX=1;exitY=0.25;exitDx=0;exitDy=0;entryX=-0.017;entryY=0.367;entryDx=0;entryDy=0;entryPerimeter=0;" edge="1" parent="w9qUwpdRqVjGqrr_h310-15" source="w9qUwpdRqVjGqrr_h310-17" target="w9qUwpdRqVjGqrr_h310-18">
          <mxGeometry width="50" height="50" relative="1" as="geometry">
            <mxPoint x="60" y="270" as="sourcePoint" />
            <mxPoint x="110" y="220" as="targetPoint" />
          </mxGeometry>
        </mxCell>
        <mxCell id="w9qUwpdRqVjGqrr_h310-20" value="" style="endArrow=classic;html=1;rounded=0;exitX=-0.033;exitY=0.617;exitDx=0;exitDy=0;entryX=0.98;entryY=0.64;entryDx=0;entryDy=0;exitPerimeter=0;entryPerimeter=0;" edge="1" parent="w9qUwpdRqVjGqrr_h310-15" source="w9qUwpdRqVjGqrr_h310-18" target="w9qUwpdRqVjGqrr_h310-17">
          <mxGeometry width="50" height="50" relative="1" as="geometry">
            <mxPoint x="20" y="160" as="sourcePoint" />
            <mxPoint x="69" y="164" as="targetPoint" />
          </mxGeometry>
        </mxCell>
        <mxCell id="w9qUwpdRqVjGqrr_h310-23" value="&lt;b&gt;Envoy&lt;/b&gt;" style="text;html=1;align=center;verticalAlign=middle;resizable=0;points=[];autosize=1;strokeColor=none;fillColor=none;" vertex="1" parent="w9qUwpdRqVjGqrr_h310-15">
          <mxGeometry x="-5" y="40" width="60" height="30" as="geometry" />
        </mxCell>
        <mxCell id="w9qUwpdRqVjGqrr_h310-27" value="&lt;span style=&quot;background-color: rgb(0, 0, 0);&quot;&gt;&lt;font color=&quot;#ffffff&quot;&gt;App 2&lt;/font&gt;&lt;/span&gt;" style="text;html=1;align=center;verticalAlign=middle;resizable=0;points=[];autosize=1;strokeColor=none;fillColor=none;fontStyle=1" vertex="1" parent="w9qUwpdRqVjGqrr_h310-15">
          <mxGeometry x="95" y="40" width="60" height="30" as="geometry" />
        </mxCell>
        <mxCell id="w9qUwpdRqVjGqrr_h310-66" value="&lt;font face=&quot;Comic Sans MS&quot; style=&quot;font-size: 18px;&quot; color=&quot;#ffffff&quot;&gt;6&lt;/font&gt;" style="ellipse;whiteSpace=wrap;html=1;aspect=fixed;strokeWidth=2;fontFamily=Tahoma;spacingBottom=4;spacingRight=2;strokeColor=#d3d3d3;fillColor=#000000;" vertex="1" parent="w9qUwpdRqVjGqrr_h310-15">
          <mxGeometry x="60" y="27.5" width="20" height="20" as="geometry" />
        </mxCell>
        <mxCell id="w9qUwpdRqVjGqrr_h310-65" value="&lt;font face=&quot;Comic Sans MS&quot; style=&quot;font-size: 18px;&quot; color=&quot;#ffffff&quot;&gt;7&lt;/font&gt;" style="ellipse;whiteSpace=wrap;html=1;aspect=fixed;strokeWidth=2;fontFamily=Tahoma;spacingBottom=4;spacingRight=2;strokeColor=#d3d3d3;fillColor=#000000;" vertex="1" parent="w9qUwpdRqVjGqrr_h310-15">
          <mxGeometry x="70" y="60" width="20" height="20" as="geometry" />
        </mxCell>
        <mxCell id="w9qUwpdRqVjGqrr_h310-29" value="" style="group;fillColor=default;" vertex="1" connectable="0" parent="1">
          <mxGeometry x="460" y="270" width="100" height="100" as="geometry" />
        </mxCell>
        <mxCell id="w9qUwpdRqVjGqrr_h310-21" value="" style="verticalLabelPosition=bottom;verticalAlign=top;html=1;shape=mxgraph.basic.polygon;polyCoords=[[0.25,0],[0.75,0],[1,0.25],[1,0.75],[0.75,1],[0.25,1],[0,0.75],[0,0.25]];polyline=0;" vertex="1" parent="w9qUwpdRqVjGqrr_h310-29">
          <mxGeometry width="100" height="100" as="geometry" />
        </mxCell>
        <mxCell id="w9qUwpdRqVjGqrr_h310-22" value="&lt;b&gt;Management&lt;br&gt;&amp;nbsp;Server&lt;/b&gt;" style="text;html=1;align=center;verticalAlign=middle;resizable=0;points=[];autosize=1;strokeColor=none;fillColor=none;" vertex="1" parent="w9qUwpdRqVjGqrr_h310-29">
          <mxGeometry y="30" width="100" height="40" as="geometry" />
        </mxCell>
        <mxCell id="w9qUwpdRqVjGqrr_h310-30" value="" style="verticalLabelPosition=bottom;verticalAlign=top;html=1;shape=mxgraph.basic.plaque;dx=6;whiteSpace=wrap;" vertex="1" parent="1">
          <mxGeometry x="630" y="249" width="100" height="60" as="geometry" />
        </mxCell>
        <mxCell id="w9qUwpdRqVjGqrr_h310-31" value="&lt;b&gt;Service&lt;br&gt;Discovery&lt;/b&gt;" style="text;html=1;align=center;verticalAlign=middle;resizable=0;points=[];autosize=1;strokeColor=none;fillColor=none;" vertex="1" parent="1">
          <mxGeometry x="640" y="259" width="80" height="40" as="geometry" />
        </mxCell>
        <mxCell id="w9qUwpdRqVjGqrr_h310-32" value="" style="endArrow=classic;html=1;rounded=0;entryX=0;entryY=0.5;entryDx=0;entryDy=0;entryPerimeter=0;" edge="1" parent="1" target="w9qUwpdRqVjGqrr_h310-1">
          <mxGeometry width="50" height="50" relative="1" as="geometry">
            <mxPoint x="-180" y="270" as="sourcePoint" />
            <mxPoint x="70" y="260" as="targetPoint" />
          </mxGeometry>
        </mxCell>
        <mxCell id="w9qUwpdRqVjGqrr_h310-33" value="" style="endArrow=classic;html=1;rounded=0;exitX=0;exitY=0.75;exitDx=0;exitDy=0;exitPerimeter=0;" edge="1" parent="1" source="w9qUwpdRqVjGqrr_h310-1">
          <mxGeometry width="50" height="50" relative="1" as="geometry">
            <mxPoint x="-110" y="420" as="sourcePoint" />
            <mxPoint x="-180" y="289" as="targetPoint" />
          </mxGeometry>
        </mxCell>
        <mxCell id="w9qUwpdRqVjGqrr_h310-34" value="" style="endArrow=classic;html=1;rounded=0;exitX=0;exitY=0.5;exitDx=0;exitDy=0;entryX=1;entryY=0.5;entryDx=0;entryDy=0;entryPerimeter=0;" edge="1" parent="1" source="w9qUwpdRqVjGqrr_h310-2" target="w9qUwpdRqVjGqrr_h310-1">
          <mxGeometry width="50" height="50" relative="1" as="geometry">
            <mxPoint x="-200" y="200" as="sourcePoint" />
            <mxPoint x="-150" y="150" as="targetPoint" />
          </mxGeometry>
        </mxCell>
        <mxCell id="w9qUwpdRqVjGqrr_h310-35" value="" style="endArrow=classic;html=1;rounded=0;exitX=1;exitY=0.25;exitDx=0;exitDy=0;exitPerimeter=0;entryX=0;entryY=0.25;entryDx=0;entryDy=0;" edge="1" parent="1" source="w9qUwpdRqVjGqrr_h310-1" target="w9qUwpdRqVjGqrr_h310-2">
          <mxGeometry width="50" height="50" relative="1" as="geometry">
            <mxPoint x="-190" y="210" as="sourcePoint" />
            <mxPoint x="-140" y="160" as="targetPoint" />
          </mxGeometry>
        </mxCell>
        <mxCell id="w9qUwpdRqVjGqrr_h310-37" value="" style="curved=1;endArrow=classic;html=1;rounded=0;entryX=0;entryY=0.75;entryDx=0;entryDy=0;exitX=0;exitY=0.75;exitDx=0;exitDy=0;" edge="1" parent="1" source="w9qUwpdRqVjGqrr_h310-16" target="w9qUwpdRqVjGqrr_h310-2">
          <mxGeometry width="50" height="50" relative="1" as="geometry">
            <mxPoint x="160" y="440" as="sourcePoint" />
            <mxPoint x="210" y="390" as="targetPoint" />
            <Array as="points">
              <mxPoint x="210" y="440" />
              <mxPoint x="160" y="390" />
            </Array>
          </mxGeometry>
        </mxCell>
        <mxCell id="w9qUwpdRqVjGqrr_h310-39" value="" style="curved=1;endArrow=classic;html=1;rounded=0;exitX=0.05;exitY=0.982;exitDx=0;exitDy=0;exitPerimeter=0;entryX=0;entryY=0.25;entryDx=0;entryDy=0;" edge="1" parent="1" source="w9qUwpdRqVjGqrr_h310-2" target="w9qUwpdRqVjGqrr_h310-16">
          <mxGeometry width="50" height="50" relative="1" as="geometry">
            <mxPoint x="290" y="340" as="sourcePoint" />
            <mxPoint x="340" y="290" as="targetPoint" />
            <Array as="points">
              <mxPoint x="220" y="350" />
            </Array>
          </mxGeometry>
        </mxCell>
        <mxCell id="w9qUwpdRqVjGqrr_h310-40" value="" style="endArrow=none;dashed=1;html=1;rounded=0;exitX=0.75;exitY=1;exitDx=0;exitDy=0;entryX=0.05;entryY=0.18;entryDx=0;entryDy=0;entryPerimeter=0;strokeWidth=2;strokeColor=#0000FF;" edge="1" parent="1" source="w9qUwpdRqVjGqrr_h310-3" target="w9qUwpdRqVjGqrr_h310-21">
          <mxGeometry width="50" height="50" relative="1" as="geometry">
            <mxPoint x="370" y="340" as="sourcePoint" />
            <mxPoint x="420" y="290" as="targetPoint" />
          </mxGeometry>
        </mxCell>
        <mxCell id="w9qUwpdRqVjGqrr_h310-41" value="" style="endArrow=none;dashed=1;html=1;rounded=0;exitX=0.18;exitY=1.01;exitDx=0;exitDy=0;exitPerimeter=0;entryX=0.5;entryY=0;entryDx=0;entryDy=0;strokeWidth=2;strokeColor=#3333FF;" edge="1" parent="1" source="w9qUwpdRqVjGqrr_h310-21" target="w9qUwpdRqVjGqrr_h310-17">
          <mxGeometry width="50" height="50" relative="1" as="geometry">
            <mxPoint x="540" y="530" as="sourcePoint" />
            <mxPoint x="590" y="480" as="targetPoint" />
          </mxGeometry>
        </mxCell>
        <mxCell id="w9qUwpdRqVjGqrr_h310-42" value="" style="endArrow=classic;html=1;exitX=0.5;exitY=0;exitDx=0;exitDy=0;exitPerimeter=0;entryX=0.5;entryY=0;entryDx=0;entryDy=0;entryPerimeter=0;curved=1;dashed=1;strokeColor=#990099;" edge="1" parent="1" source="w9qUwpdRqVjGqrr_h310-11" target="w9qUwpdRqVjGqrr_h310-30">
          <mxGeometry width="50" height="50" relative="1" as="geometry">
            <mxPoint x="560" y="210" as="sourcePoint" />
            <mxPoint x="610" y="160" as="targetPoint" />
            <Array as="points">
              <mxPoint x="610" y="210" />
            </Array>
          </mxGeometry>
        </mxCell>
        <mxCell id="w9qUwpdRqVjGqrr_h310-43" value="" style="endArrow=classic;html=1;exitX=0.543;exitY=0.87;exitDx=0;exitDy=0;exitPerimeter=0;entryX=0.5;entryY=1;entryDx=0;entryDy=0;entryPerimeter=0;curved=1;dashed=1;strokeColor=#990099;" edge="1" parent="1" source="w9qUwpdRqVjGqrr_h310-18" target="w9qUwpdRqVjGqrr_h310-30">
          <mxGeometry width="50" height="50" relative="1" as="geometry">
            <mxPoint x="500" y="460" as="sourcePoint" />
            <mxPoint x="775" y="561" as="targetPoint" />
            <Array as="points">
              <mxPoint x="705" y="522" />
            </Array>
          </mxGeometry>
        </mxCell>
        <mxCell id="w9qUwpdRqVjGqrr_h310-44" value="&lt;font face=&quot;Comic Sans MS&quot;&gt;Register&lt;/font&gt;" style="text;html=1;align=center;verticalAlign=middle;resizable=0;points=[];autosize=1;strokeColor=none;fillColor=none;" vertex="1" parent="1">
          <mxGeometry x="505" y="158" width="70" height="30" as="geometry" />
        </mxCell>
        <mxCell id="w9qUwpdRqVjGqrr_h310-45" value="&lt;font face=&quot;Comic Sans MS&quot;&gt;Register&lt;/font&gt;" style="text;html=1;align=center;verticalAlign=middle;resizable=0;points=[];autosize=1;strokeColor=none;fillColor=none;" vertex="1" parent="1">
          <mxGeometry x="560" y="430" width="70" height="30" as="geometry" />
        </mxCell>
        <mxCell id="w9qUwpdRqVjGqrr_h310-59" value="&lt;font face=&quot;Comic Sans MS&quot; style=&quot;font-size: 18px;&quot; color=&quot;#ffffff&quot;&gt;1&lt;/font&gt;" style="ellipse;whiteSpace=wrap;html=1;aspect=fixed;strokeWidth=2;fontFamily=Tahoma;spacingBottom=4;spacingRight=2;strokeColor=#d3d3d3;fillColor=#000000;" vertex="1" parent="1">
          <mxGeometry x="-140" y="249" width="20" height="20" as="geometry" />
        </mxCell>
        <mxCell id="w9qUwpdRqVjGqrr_h310-62" value="&lt;font face=&quot;Comic Sans MS&quot; style=&quot;font-size: 18px;&quot; color=&quot;#ffffff&quot;&gt;9&lt;/font&gt;" style="ellipse;whiteSpace=wrap;html=1;aspect=fixed;strokeWidth=2;fontFamily=Tahoma;spacingBottom=4;spacingRight=2;strokeColor=#d3d3d3;fillColor=#000000;" vertex="1" parent="1">
          <mxGeometry x="140" y="239" width="20" height="20" as="geometry" />
        </mxCell>
        <mxCell id="w9qUwpdRqVjGqrr_h310-63" value="&lt;font face=&quot;Comic Sans MS&quot; style=&quot;font-size: 18px;&quot; color=&quot;#ffffff&quot;&gt;2&lt;/font&gt;" style="ellipse;whiteSpace=wrap;html=1;aspect=fixed;strokeWidth=2;fontFamily=Tahoma;spacingBottom=4;spacingRight=2;strokeColor=#d3d3d3;fillColor=#000000;" vertex="1" parent="1">
          <mxGeometry x="115" y="200" width="20" height="20" as="geometry" />
        </mxCell>
        <mxCell id="w9qUwpdRqVjGqrr_h310-64" value="&lt;font face=&quot;Comic Sans MS&quot; style=&quot;font-size: 15px;&quot; color=&quot;#ffffff&quot;&gt;10&lt;/font&gt;" style="ellipse;whiteSpace=wrap;html=1;aspect=fixed;strokeWidth=2;fontFamily=Tahoma;spacingBottom=4;spacingRight=2;strokeColor=#d3d3d3;fillColor=#000000;" vertex="1" parent="1">
          <mxGeometry x="-140" y="299" width="21" height="21" as="geometry" />
        </mxCell>
        <mxCell id="w9qUwpdRqVjGqrr_h310-67" value="&lt;font face=&quot;Comic Sans MS&quot; style=&quot;font-size: 18px;&quot; color=&quot;#ffffff&quot;&gt;5&lt;/font&gt;" style="ellipse;whiteSpace=wrap;html=1;aspect=fixed;strokeWidth=2;fontFamily=Tahoma;spacingBottom=4;spacingRight=2;strokeColor=#d3d3d3;fillColor=#000000;" vertex="1" parent="1">
          <mxGeometry x="250" y="330" width="20" height="20" as="geometry" />
        </mxCell>
        <mxCell id="w9qUwpdRqVjGqrr_h310-68" value="&lt;font face=&quot;Comic Sans MS&quot; style=&quot;font-size: 18px;&quot; color=&quot;#ffffff&quot;&gt;8&lt;/font&gt;" style="ellipse;whiteSpace=wrap;html=1;aspect=fixed;strokeWidth=2;fontFamily=Tahoma;spacingBottom=4;spacingRight=2;strokeColor=#d3d3d3;fillColor=#000000;" vertex="1" parent="1">
          <mxGeometry x="180" y="310" width="20" height="20" as="geometry" />
        </mxCell>
        <mxCell id="w9qUwpdRqVjGqrr_h310-72" value="&lt;b&gt;GRPC&lt;/b&gt;" style="text;html=1;align=center;verticalAlign=middle;resizable=0;points=[];autosize=1;strokeColor=none;fillColor=none;" vertex="1" parent="1">
          <mxGeometry x="420" y="249" width="60" height="30" as="geometry" />
        </mxCell>
        <mxCell id="w9qUwpdRqVjGqrr_h310-73" value="&lt;b style=&quot;background-color: rgb(0, 255, 255);&quot;&gt;&lt;font face=&quot;Comic Sans MS&quot;&gt;&amp;nbsp;POD 1&amp;nbsp;&lt;/font&gt;&lt;/b&gt;" style="text;html=1;align=center;verticalAlign=middle;resizable=0;points=[];autosize=1;strokeColor=none;fillColor=none;" vertex="1" parent="1">
          <mxGeometry x="320" y="80" width="70" height="30" as="geometry" />
        </mxCell>
        <mxCell id="w9qUwpdRqVjGqrr_h310-74" value="&lt;b style=&quot;background-color: rgb(0, 255, 255);&quot;&gt;&lt;font face=&quot;Comic Sans MS&quot;&gt;&amp;nbsp;POD 2&amp;nbsp;&lt;/font&gt;&lt;/b&gt;" style="text;html=1;align=center;verticalAlign=middle;resizable=0;points=[];autosize=1;strokeColor=none;fillColor=none;" vertex="1" parent="1">
          <mxGeometry x="320" y="490" width="70" height="30" as="geometry" />
        </mxCell>
      </root>
    </mxGraphModel>
  </diagram>
</mxfile>
